General
Complete name                            : Pitch Perfect (HD 1080p).m4v
Format                                   : MPEG-4
Format profile                           : Base Media / Version 2
Codec ID                                 : mp42
File size                                : 7.88 GiB
Duration                                 : 1h 52mn
Overall bit rate mode                    : Variable
Overall bit rate                         : 10.1 Mbps
Movie name                               : Pitch Perfect
Performer                                : Alexis Knapp, Anna Kendrick, Brittany Snow, Christopher Mintz-Plasse, Rebel Wilson, Adam DeVine, Anna Camp, Freddie Stroma, Jacob Wysocki, John Michael Higgins, Elizabeth Banks, Skylar Astin, Ben Platt, Ester Dean, Hana Mae Lee, Kelley Jakle, Wanetah Walmsley, Shelley Regner, Caroline Fourmy, Nicole Lovince, Utkarsh Ambudkar, Michael Viruet, David Del Rio, John Benjamin Hickey, Jinhee Joung, Joe Lo Truglio, Har Mar Superstar, Jason Jones, Donald Faison
Genre                                    : Comedy, Music
Recorded date                            : 2012-09-28
Encoded date                             : UTC 2012-12-27 06:34:54
Tagged date                              : UTC 2012-12-29 21:38:06
Writing application                      : HandBrake 5106svn 2012122501
Cover                                    : Yes
desc                                     : A comedy set in the middle of a war between rival a cappella groups and centered on a rebellious girl who joins one of the groups as an escape from her unhappy life at school.

Video #1
ID                                       : 1
Format                                   : AVC
Format/Info                              : Advanced Video Codec
Format profile                           : High@L4.0
Format settings, CABAC                   : Yes
Format settings, ReFrames                : 4 frames
Codec ID                                 : avc1
Codec ID/Info                            : Advanced Video Coding
Duration                                 : 1h 52mn
Bit rate mode                            : Variable
Bit rate                                 : 9 218 Kbps
Width                                    : 1 920 pixels
Height                                   : 1 036 pixels
Display aspect ratio                     : 1.85:1
Frame rate mode                          : Variable
Frame rate                               : 23.976 fps
Minimum frame rate                       : 23.810 fps
Maximum frame rate                       : 30.000 fps
Color space                              : YUV
Chroma subsampling                       : 4:2:0
Bit depth                                : 8 bits
Scan type                                : Progressive
Bits/(Pixel*Frame)                       : 0.193
Stream size                              : 7.22 GiB (92%)
Writing library                          : x264 core 128
Encoding settings                        : cabac=1 / ref=4 / deblock=1:0:0 / analyse=0x3:0x133 / me=umh / subme=10 / psy=1 / psy_rd=1.00:0.15 / mixed_ref=1 / me_range=32 / chroma_me=1 / trellis=2 / 8x8dct=1 / cqm=0 / deadzone=21,11 / fast_pskip=1 / chroma_qp_offset=-3 / threads=12 / lookahead_threads=2 / sliced_threads=0 / nr=0 / decimate=1 / interlaced=0 / bluray_compat=0 / constrained_intra=0 / bframes=4 / b_pyramid=2 / b_adapt=2 / b_bias=0 / direct=3 / weightb=1 / open_gop=0 / weightp=2 / keyint=300 / keyint_min=30 / scenecut=40 / intra_refresh=0 / rc_lookahead=60 / rc=crf / mbtree=1 / crf=18.0 / qcomp=0.60 / qpmin=4 / qpmax=69 / qpstep=4 / ip_ratio=1.40 / aq=1:1.00
Language                                 : English
Encoded date                             : UTC 2012-12-27 06:34:54
Tagged date                              : UTC 2012-12-27 13:17:49
Color primaries                          : BT.709
Transfer characteristics                 : BT.709
Matrix coefficients                      : BT.709

Audio #1
ID                                       : 2
Format                                   : AAC
Format/Info                              : Advanced Audio Codec
Format profile                           : LC
Codec ID                                 : 40
Duration                                 : 1h 52mn
Bit rate mode                            : Variable
Bit rate                                 : 192 Kbps
Maximum bit rate                         : 303 Kbps
Channel(s)                               : 2 channels
Channel positions                        : Front: L R
Sampling rate                            : 48.0 KHz
Compression mode                         : Lossy
Delay relative to video                  : 83ms
Stream size                              : 156 MiB (2%)
Language                                 : English
Encoded date                             : UTC 2012-12-27 06:34:54
Tagged date                              : UTC 2012-12-27 13:17:48

Audio #2
ID                                       : 3
Format                                   : AC-3
Format/Info                              : Audio Coding 3
Mode extension                           : CM (complete main)
Format settings, Endianness              : Big
Codec ID                                 : ac-3
Duration                                 : 1h 52mn
Bit rate mode                            : Constant
Bit rate                                 : 640 Kbps
Channel(s)                               : 6 channels
Channel positions                        : Front: L C R, Side: L R, LFE
Sampling rate                            : 48.0 KHz
Bit depth                                : 16 bits
Compression mode                         : Lossy
Delay relative to video                  : 83ms
Stream size                              : 513 MiB (6%)
Language                                 : English
Encoded date                             : UTC 2012-12-27 06:34:54
Tagged date                              : UTC 2012-12-27 13:17:48